<svg xmlns="http://www.w3.org/2000/svg" xmlns:xlink="http://www.w3.org/1999/xlink" width="500" zoomAndPan="magnify" viewBox="0 0 375 374.999991" height="500" preserveAspectRatio="xMidYMid meet" version="1.0"><defs><g/></defs><g fill="#253439" fill-opacity="1"><g transform="translate(195.751881, 338.332208)"><g><path d="M 19.472656 0 L 51.183594 0 C 49.515625 -23.367188 48.957031 -34.492188 48.957031 -54.800781 L 48.957031 -102.921875 L 70.933594 -102.921875 C 120.449219 -102.921875 163.5625 -114.328125 163.5625 -162.730469 C 163.5625 -211.132812 120.449219 -222.535156 70.933594 -222.535156 L 19.472656 -222.535156 C 21.140625 -199.167969 21.695312 -188.042969 21.695312 -167.738281 L 21.695312 -54.800781 C 21.695312 -34.492188 21.140625 -23.367188 19.472656 0 Z M 48.957031 -107.375 L 48.957031 -218.085938 L 70.65625 -218.085938 C 103.199219 -218.085938 135.191406 -206.957031 135.191406 -162.730469 C 135.191406 -118.5 103.199219 -107.375 70.65625 -107.375 Z M 48.957031 -107.375 "/></g></g></g><g fill="#253439" fill-opacity="1"><g transform="translate(10.158725, 243.970721)"><g><path d="M 19.472656 0 L 51.183594 0 C 49.515625 -23.367188 48.957031 -34.492188 48.957031 -54.800781 L 48.957031 -102.921875 L 70.933594 -102.921875 C 120.449219 -102.921875 163.5625 -114.328125 163.5625 -162.730469 C 163.5625 -211.132812 120.449219 -222.535156 70.933594 -222.535156 L 19.472656 -222.535156 C 21.140625 -199.167969 21.695312 -188.042969 21.695312 -167.738281 L 21.695312 -54.800781 C 21.695312 -34.492188 21.140625 -23.367188 19.472656 0 Z M 48.957031 -107.375 L 48.957031 -218.085938 L 70.65625 -218.085938 C 103.199219 -218.085938 135.191406 -206.957031 135.191406 -162.730469 C 135.191406 -118.5 103.199219 -107.375 70.65625 -107.375 Z M 48.957031 -107.375 "/></g></g></g><path fill="#faf7f5" d="M -12.703125 149.945312 L 387.496094 149.945312 L 387.496094 207.824219 L -12.703125 207.824219 L -12.703125 149.945312 " fill-opacity="1" fill-rule="nonzero"/><g fill="#253439" fill-opacity="1"><g transform="translate(4.804112, 188.34955)"><g><path d="M 3.28125 -24.46875 L 9.125 -24.46875 C 10.34375 -24.46875 11.46875 -24.285156 12.5 -23.921875 C 13.539062 -23.554688 14.429688 -23.039062 15.171875 -22.375 C 15.910156 -21.71875 16.488281 -20.941406 16.90625 -20.046875 C 17.320312 -19.148438 17.53125 -18.164062 17.53125 -17.09375 C 17.53125 -16.019531 17.320312 -15.03125 16.90625 -14.125 C 16.488281 -13.226562 15.910156 -12.453125 15.171875 -11.796875 C 14.429688 -11.140625 13.539062 -10.628906 12.5 -10.265625 C 11.46875 -9.898438 10.34375 -9.71875 9.125 -9.71875 L 5.84375 -9.71875 L 5.84375 0 L 3.28125 0 Z M 9.125 -12.09375 C 10.882812 -12.09375 12.296875 -12.546875 13.359375 -13.453125 C 14.429688 -14.367188 14.96875 -15.59375 14.96875 -17.125 C 14.96875 -18.632812 14.429688 -19.835938 13.359375 -20.734375 C 12.296875 -21.640625 10.882812 -22.09375 9.125 -22.09375 L 5.84375 -22.09375 L 5.84375 -12.09375 Z M 9.125 -12.09375 "/></g></g></g><g fill="#253439" fill-opacity="1"><g transform="translate(29.705028, 188.34955)"><g><path d="M 3.28125 -24.46875 L 9.125 -24.46875 C 10.34375 -24.46875 11.46875 -24.289062 12.5 -23.9375 C 13.539062 -23.582031 14.429688 -23.082031 15.171875 -22.4375 C 15.910156 -21.789062 16.488281 -21.03125 16.90625 -20.15625 C 17.320312 -19.28125 17.53125 -18.316406 17.53125 -17.265625 C 17.53125 -16.421875 17.394531 -15.625 17.125 -14.875 C 16.851562 -14.132812 16.472656 -13.46875 15.984375 -12.875 C 15.503906 -12.28125 14.921875 -11.769531 14.234375 -11.34375 C 13.554688 -10.914062 12.816406 -10.59375 12.015625 -10.375 L 18.984375 0 L 15.921875 0 L 9.125 -10.078125 L 5.84375 -10.078125 L 5.84375 0 L 3.28125 0 Z M 9.125 -12.453125 C 10.882812 -12.453125 12.296875 -12.890625 13.359375 -13.765625 C 14.429688 -14.640625 14.96875 -15.820312 14.96875 -17.3125 C 14.96875 -18.769531 14.429688 -19.929688 13.359375 -20.796875 C 12.296875 -21.660156 10.882812 -22.09375 9.125 -22.09375 L 5.84375 -22.09375 L 5.84375 -12.453125 Z M 9.125 -12.453125 "/></g></g></g><g fill="#253439" fill-opacity="1"><g transform="translate(55.883762, 188.34955)"><g><path d="M 10.40625 -25.203125 L 11.140625 -25.203125 L 20.453125 0 L 17.640625 0 L 15.34375 -6.421875 L 6.0625 -6.421875 L 3.765625 0 L 1.09375 0 Z M 14.5 -8.796875 L 10.703125 -19.390625 L 6.90625 -8.796875 Z M 14.5 -8.796875 "/></g></g></g><g fill="#253439" fill-opacity="1"><g transform="translate(83.157758, 188.34955)"><g><path d="M 3.28125 -24.46875 L 5.84375 -24.46875 L 5.84375 -13.21875 L 15.84375 -24.46875 L 19.03125 -24.46875 L 8.578125 -12.75 L 19.5 0 L 16.109375 0 L 5.84375 -11.984375 L 5.84375 0 L 3.28125 0 Z M 3.28125 -24.46875 "/></g></g></g><g fill="#253439" fill-opacity="1"><g transform="translate(108.569805, 188.34955)"><g><path d="M 10.40625 -25.203125 L 11.140625 -25.203125 L 20.453125 0 L 17.640625 0 L 15.34375 -6.421875 L 6.0625 -6.421875 L 3.765625 0 L 1.09375 0 Z M 14.5 -8.796875 L 10.703125 -19.390625 L 6.90625 -8.796875 Z M 14.5 -8.796875 "/></g></g></g><g fill="#253439" fill-opacity="1"><g transform="translate(135.843805, 188.34955)"><g><path d="M 9.171875 0.359375 C 7.515625 0.359375 5.984375 -0.0351562 4.578125 -0.828125 C 3.179688 -1.617188 2.019531 -2.753906 1.09375 -4.234375 L 3.0625 -5.84375 C 4.769531 -3.257812 6.816406 -1.96875 9.203125 -1.96875 C 10.640625 -1.96875 11.796875 -2.359375 12.671875 -3.140625 C 13.546875 -3.921875 13.984375 -4.957031 13.984375 -6.25 C 13.984375 -7.363281 13.585938 -8.320312 12.796875 -9.125 C 12.003906 -9.925781 10.734375 -10.679688 8.984375 -11.390625 C 6.765625 -12.242188 5.160156 -13.242188 4.171875 -14.390625 C 3.191406 -15.535156 2.703125 -16.898438 2.703125 -18.484375 C 2.703125 -19.429688 2.859375 -20.289062 3.171875 -21.0625 C 3.492188 -21.84375 3.945312 -22.515625 4.53125 -23.078125 C 5.113281 -23.640625 5.8125 -24.070312 6.625 -24.375 C 7.4375 -24.675781 8.34375 -24.828125 9.34375 -24.828125 C 12.144531 -24.828125 14.457031 -23.585938 16.28125 -21.109375 L 14.3125 -19.5 C 13.582031 -20.519531 12.804688 -21.265625 11.984375 -21.734375 C 11.171875 -22.210938 10.28125 -22.453125 9.3125 -22.453125 C 8.070312 -22.453125 7.085938 -22.109375 6.359375 -21.421875 C 5.628906 -20.742188 5.265625 -19.835938 5.265625 -18.703125 C 5.265625 -17.597656 5.632812 -16.660156 6.375 -15.890625 C 7.113281 -15.128906 8.347656 -14.410156 10.078125 -13.734375 C 12.296875 -12.878906 13.925781 -11.859375 14.96875 -10.671875 C 16.019531 -9.492188 16.546875 -8.09375 16.546875 -6.46875 C 16.546875 -5.46875 16.363281 -4.546875 16 -3.703125 C 15.632812 -2.867188 15.117188 -2.144531 14.453125 -1.53125 C 13.796875 -0.925781 13.015625 -0.457031 12.109375 -0.125 C 11.210938 0.195312 10.234375 0.359375 9.171875 0.359375 Z M 9.171875 0.359375 "/></g></g></g><g fill="#253439" fill-opacity="1"><g transform="translate(159.94154, 188.34955)"><g><path d="M 3.28125 -24.46875 L 5.84375 -24.46875 L 5.84375 -13.515625 L 18.984375 -13.515625 L 18.984375 -24.46875 L 21.546875 -24.46875 L 21.546875 0 L 18.984375 0 L 18.984375 -11.140625 L 5.84375 -11.140625 L 5.84375 0 L 3.28125 0 Z M 3.28125 -24.46875 "/></g></g></g><g fill="#253439" fill-opacity="1"><g transform="translate(190.501322, 188.34955)"><g/></g></g><g fill="#253439" fill-opacity="1"><g transform="translate(204.267079, 188.34955)"><g><path d="M 3.28125 -24.46875 L 9.125 -24.46875 C 10.34375 -24.46875 11.46875 -24.285156 12.5 -23.921875 C 13.539062 -23.554688 14.429688 -23.039062 15.171875 -22.375 C 15.910156 -21.71875 16.488281 -20.941406 16.90625 -20.046875 C 17.320312 -19.148438 17.53125 -18.164062 17.53125 -17.09375 C 17.53125 -16.019531 17.320312 -15.03125 16.90625 -14.125 C 16.488281 -13.226562 15.910156 -12.453125 15.171875 -11.796875 C 14.429688 -11.140625 13.539062 -10.628906 12.5 -10.265625 C 11.46875 -9.898438 10.34375 -9.71875 9.125 -9.71875 L 5.84375 -9.71875 L 5.84375 0 L 3.28125 0 Z M 9.125 -12.09375 C 10.882812 -12.09375 12.296875 -12.546875 13.359375 -13.453125 C 14.429688 -14.367188 14.96875 -15.59375 14.96875 -17.125 C 14.96875 -18.632812 14.429688 -19.835938 13.359375 -20.734375 C 12.296875 -21.640625 10.882812 -22.09375 9.125 -22.09375 L 5.84375 -22.09375 L 5.84375 -12.09375 Z M 9.125 -12.09375 "/></g></g></g><g fill="#253439" fill-opacity="1"><g transform="translate(229.168001, 188.34955)"><g><path d="M 10.40625 -25.203125 L 11.140625 -25.203125 L 20.453125 0 L 17.640625 0 L 15.34375 -6.421875 L 6.0625 -6.421875 L 3.765625 0 L 1.09375 0 Z M 14.5 -8.796875 L 10.703125 -19.390625 L 6.90625 -8.796875 Z M 14.5 -8.796875 "/></g></g></g><g fill="#253439" fill-opacity="1"><g transform="translate(256.442, 188.34955)"><g><path d="M 3.28125 -24.46875 L 9.125 -24.46875 C 10.34375 -24.46875 11.46875 -24.289062 12.5 -23.9375 C 13.539062 -23.582031 14.429688 -23.082031 15.171875 -22.4375 C 15.910156 -21.789062 16.488281 -21.03125 16.90625 -20.15625 C 17.320312 -19.28125 17.53125 -18.316406 17.53125 -17.265625 C 17.53125 -16.421875 17.394531 -15.625 17.125 -14.875 C 16.851562 -14.132812 16.472656 -13.46875 15.984375 -12.875 C 15.503906 -12.28125 14.921875 -11.769531 14.234375 -11.34375 C 13.554688 -10.914062 12.816406 -10.59375 12.015625 -10.375 L 18.984375 0 L 15.921875 0 L 9.125 -10.078125 L 5.84375 -10.078125 L 5.84375 0 L 3.28125 0 Z M 9.125 -12.453125 C 10.882812 -12.453125 12.296875 -12.890625 13.359375 -13.765625 C 14.429688 -14.640625 14.96875 -15.820312 14.96875 -17.3125 C 14.96875 -18.769531 14.429688 -19.929688 13.359375 -20.796875 C 12.296875 -21.660156 10.882812 -22.09375 9.125 -22.09375 L 5.84375 -22.09375 L 5.84375 -12.453125 Z M 9.125 -12.453125 "/></g></g></g><g fill="#253439" fill-opacity="1"><g transform="translate(282.62074, 188.34955)"><g><path d="M 3.28125 -24.46875 L 5.84375 -24.46875 L 5.84375 0 L 3.28125 0 Z M 3.28125 -24.46875 "/></g></g></g><g fill="#253439" fill-opacity="1"><g transform="translate(297.481758, 188.34955)"><g><path d="M 8.21875 -9.5 L 0.734375 -24.46875 L 3.609375 -24.46875 L 9.671875 -12.34375 L 15.84375 -24.46875 L 18.515625 -24.46875 L 10.765625 -9.5 L 10.765625 0 L 8.21875 0 Z M 8.21875 -9.5 "/></g></g></g><g fill="#253439" fill-opacity="1"><g transform="translate(322.455698, 188.34955)"><g><path d="M 10.40625 -25.203125 L 11.140625 -25.203125 L 20.453125 0 L 17.640625 0 L 15.34375 -6.421875 L 6.0625 -6.421875 L 3.765625 0 L 1.09375 0 Z M 14.5 -8.796875 L 10.703125 -19.390625 L 6.90625 -8.796875 Z M 14.5 -8.796875 "/></g></g></g><g fill="#253439" fill-opacity="1"><g transform="translate(349.729697, 188.34955)"><g><path d="M 3.28125 -24.46875 L 9.125 -24.46875 C 10.34375 -24.46875 11.46875 -24.289062 12.5 -23.9375 C 13.539062 -23.582031 14.429688 -23.082031 15.171875 -22.4375 C 15.910156 -21.789062 16.488281 -21.03125 16.90625 -20.15625 C 17.320312 -19.28125 17.53125 -18.316406 17.53125 -17.265625 C 17.53125 -16.421875 17.394531 -15.625 17.125 -14.875 C 16.851562 -14.132812 16.472656 -13.46875 15.984375 -12.875 C 15.503906 -12.28125 14.921875 -11.769531 14.234375 -11.34375 C 13.554688 -10.914062 12.816406 -10.59375 12.015625 -10.375 L 18.984375 0 L 15.921875 0 L 9.125 -10.078125 L 5.84375 -10.078125 L 5.84375 0 L 3.28125 0 Z M 9.125 -12.453125 C 10.882812 -12.453125 12.296875 -12.890625 13.359375 -13.765625 C 14.429688 -14.640625 14.96875 -15.820312 14.96875 -17.3125 C 14.96875 -18.769531 14.429688 -19.929688 13.359375 -20.796875 C 12.296875 -21.660156 10.882812 -22.09375 9.125 -22.09375 L 5.84375 -22.09375 L 5.84375 -12.453125 Z M 9.125 -12.453125 "/></g></g></g></svg>